Format                           : Matroska
File size                        : 444 MiB
Duration                         : 1h 35mn
Overall bit rate                 : 649 Kbps
Movie name                       : Bruce Almighty 2003 BluRay Dual Audio - Henry Kharay
Encoded date                     : UTC 2010-12-07 17:40:04
Writing application              : mkvmerge v4.2.0 ('No Talking') built on Jul 28 2010 18:38:23
Writing library                  : libebml v1.0.0 + libmatroska v1.0.0
----------------------------------------------------------------------------------
Video
ID                               : 1
Format                           : AVC
Format/Info                      : Advanced Video Codec
Format profile                   : High@L3.0
Format settings, CABAC           : Yes
Format settings, ReFrames        : 5 frames
Muxing mode                      : Container profile=Unknown@3.0
Codec ID                         : V_MPEG4/ISO/AVC
Duration                         : 1h 35mn
Bit rate                         : 395 Kbps
Width                            : 640 pixels
Height                           : 352 pixels
Display aspect ratio             : 16:9
Frame rate                       : 23.976 fps
Color space                      : YUV
Chroma subsampling               : 4:2:0
Bit depth                        : 8 bits
Scan type                        : Progressive
Bits/(Pixel*Frame)               : 0.073
Stream size                      : 260 MiB (59%)
Title                            : Ripped By Henry
Writing library                  : x264 
-----------------------------------------------------------------------------------
Audio #1
ID                               : 2
Format                           : MPEG Audio
Format version                   : Version 1
Format profile                   : Layer 3
Mode                             : Joint stereo
Codec ID                         : A_MPEG/L3
Codec ID/Hint                    : MP3
Duration                         : 1h 35mn
Bit rate mode                    : Constant
Bit rate                         : 128 Kbps
Channel(s)                       : 2 channels
Sampling rate                    : 48.0 KHz
Stream size                      : 87.6 MiB (20%)
Title                            : Henry
Writing library                  : LAME3.98.2

Audio #2
ID                               : 3
Format                           : MPEG Audio
Format version                   : Version 1
Format profile                   : Layer 3
Mode                             : Joint stereo
Mode extension                   : MS Stereo
Codec ID                         : A_MPEG/L3
Codec ID/Hint                    : MP3
Duration                         : 1h 35mn
Bit rate mode                    : Constant
Bit rate                         : 128 Kbps
Channel(s)                       : 2 channels
Sampling rate                    : 48.0 KHz
Stream size                      : 87.6 MiB (20%)
Title                            : Henry
Writing library                  : LAME3.98.2
Language                         : Hindi

Screens: 
http://img339.imageshack.us/img339/3415/44998489.png 
http://img30.imageshack.us/img30/3391/54089587.png 
http://i1027.photobucket.com/albums/y334/expert_teamdg/vlcsnap-2010-09-27-16h57m14s155.png 
http://i1027.photobucket.com/albums/y334/expert_teamdg/vlcsnap-2010-09-27-16h54m38s128.png 
http://img106.imageshack.us/img106/6286/93160488.png 
http://i1027.photobucket.com/albums/y334/expert_teamdg/vlcsnap-2010-09-27-16h57m50s5.png

Keep Seeding
Thnx